# xmcd
#
# Track frame offsets: 
#        150
#        17167
#        34821
#        51513
#        68091
#        90420
#        116255
#        132455
#        148447
#        166151
#        181897
#        196322
#        212490
#        230355
#        246451
#        260303
#        278740
#        292338
#        308598
#        324437
#        341528
#
# Disc length: 4776 seconds
#
# Revision: 4
# Processed by: cddbd v1.5.2PL0 Copyright (c) Steve Scherf et al.
# Submitted via: ExactAudioCopyFreeDBPlugin 1.0
#
DISCID=3a12a615
DTITLE=Various Artist - Die Hit-Giganten - Best of Disco CD2
DYEAR=2013
DGENRE=Disco
TTITLE0=Donna Summer - I Feel Love (Edit)
TTITLE1=Blondie - Heart Of Glass
TTITLE2=Dan Hartman - Relight My Fire (Single Version)
TTITLE3=Diana Ross - Upside Down
TTITLE4=Kool and The Gang - Celebration (Album Version)
TTITLE5=David Christie - Saddle Up
TTITLE6=Eruption - One Way Ticket
TTITLE7=La Bionda - One For You, One For Me
TTITLE8=Labelle feat. Patti Labelle - Lady Marmelade (Album Version)
TTITLE9=Chic - Le Freak (Single Version)
TTITLE10=Wild Cherry - Play That Funky Music (Album Version)
TTITLE11=Ottawan - D.I.S.C.O.
TTITLE12=Linda Fields and The Funky Boys - Shame, Shame, Shame
TTITLE13=The Trammps - Disco Inferno (Single Edit)
TTITLE14=KC and The Sunshine Band - That's The Way (I Like It)
TTITLE15=Anita Ward - Ring My Bell
TTITLE16=Andrea True Connection - More, More, More
TTITLE17=Heatwave - Boogie Nights (Album Version)
TTITLE18=Stretch - Why Did You Do It?
TTITLE19=Barrabas - On The Road Again
TTITLE20=Ian Dury and The Blockheads - Hit Me With Your Rhythm Stick
EXTD=
EXTT0=
EXTT1=
EXTT2=
EXTT3=
EXTT4=
EXTT5=
EXTT6=
EXTT7=
EXTT8=
EXTT9=
EXTT10=
EXTT11=
EXTT12=
EXTT13=
EXTT14=
EXTT15=
EXTT16=
EXTT17=
EXTT18=
EXTT19=
EXTT20=
PLAYORDER=
